<svg width="32" height="48" viewBox="0 0 32 48" fill="none" xmlns="http://www.w3.org/2000/svg">
<path d="M15.8082 47.7476C0.431618 40.6561 -0.896574 26.1863 0.361405 19.8379C13.4912 15.0634 26.779 17.8485 31.7817 19.8379C33.7476 36.5486 21.9518 45.4072 15.8082 47.7476Z" fill="#2F82CE"/>
<path d="M23.9395 16.6657C25.1136 17.0264 26.3834 16.3636 26.49 15.14C26.5673 14.2521 26.5319 13.355 26.3823 12.4702C26.1086 10.8515 25.4603 9.31909 24.489 7.99544C23.5178 6.67179 22.2506 5.59353 20.7885 4.84673C19.3264 4.09994 17.71 3.7053 16.0683 3.6943C14.4266 3.68331 12.805 4.05628 11.3331 4.78343C9.86117 5.51058 8.57961 6.57177 7.59073 7.8823C6.60186 9.19282 5.93305 10.7164 5.6377 12.3314C5.47629 13.214 5.42887 14.1105 5.49431 14.9994C5.58449 16.2243 6.84529 16.9041 8.02409 16.5592V16.5592C9.20288 16.2142 9.83431 14.9588 9.93353 13.7346C9.94988 13.5328 9.97632 13.3315 10.0129 13.1315C10.1835 12.1986 10.5699 11.3184 11.1411 10.5613C11.7124 9.80427 12.4527 9.19123 13.3031 8.77117C14.1534 8.3511 15.0901 8.13564 16.0385 8.14199C16.9869 8.14834 17.9207 8.37632 18.7653 8.80774C19.6099 9.23915 20.342 9.86205 20.9031 10.6267C21.4641 11.3914 21.8387 12.2766 21.9968 13.2117C22.0307 13.4122 22.0544 13.6138 22.0681 13.8158C22.1509 15.0412 22.7655 16.305 23.9395 16.6657V16.6657Z" fill="#2F82CE"/>
<path d="M12.53 25.9921C12.5299 25.414 12.6799 24.8456 12.9654 24.3425C13.2508 23.8393 13.6619 23.4185 14.1587 23.121C14.6555 22.8234 15.221 22.6593 15.8003 22.6446C16.3795 22.6299 16.9527 22.7652 17.464 23.0371C17.9753 23.3091 18.4073 23.7086 18.7179 24.1966C19.0286 24.6847 19.2073 25.2447 19.2367 25.8221C19.2661 26.3995 19.1451 26.9747 18.8856 27.4916C18.626 28.0085 18.2368 28.4496 17.7557 28.7718C18.7389 29.1383 19.5929 29.7843 20.212 30.63C20.8311 31.4757 21.1881 32.4839 21.239 33.53C21.243 33.6177 21.2298 33.7054 21.1999 33.788C21.17 33.8706 21.1241 33.9465 21.0648 34.0114C21.0055 34.0763 20.9339 34.1289 20.8542 34.1662C20.7745 34.2035 20.6883 34.2247 20.6004 34.2287H11.1706C10.9932 34.2204 10.8264 34.1421 10.7068 34.0111C10.5872 33.8801 10.5247 33.707 10.5329 33.53C10.5836 32.4838 10.9406 31.4754 11.5597 30.6295C12.1788 29.7836 13.0328 29.1375 14.0162 28.7709C13.5586 28.4653 13.1837 28.0519 12.9244 27.5672C12.6652 27.0825 12.5297 26.5415 12.53 25.9921Z" fill="white"/>
</svg>
