<svg width="40" height="40" viewBox="0 0 40 40" fill="none" xmlns="http://www.w3.org/2000/svg">
<path d="M20 38.75C30.3553 38.75 38.75 30.3553 38.75 20C38.75 9.64466 30.3553 1.25 20 1.25C9.64466 1.25 1.25 9.64466 1.25 20C1.25 30.3553 9.64466 38.75 20 38.75Z" stroke="#904272" stroke-width="2"/>
<path d="M20.0007 33.5413C20.5759 33.5413 21.0423 33.075 21.0423 32.4997C21.0423 31.9244 20.5759 31.458 20.0007 31.458C19.4254 31.458 18.959 31.9244 18.959 32.4997C18.959 33.075 19.4254 33.5413 20.0007 33.5413Z" fill="#904272"/>
<path d="M20 28.333V26.5476C20 25.0601 20.7438 23.6705 21.9813 22.8455L23.2292 22.0122C24.1581 21.3921 24.9198 20.5524 25.4467 19.5676C25.9736 18.5828 26.2495 17.4832 26.25 16.3663V15.833C26.25 14.1754 25.5915 12.5857 24.4194 11.4136C23.2473 10.2415 21.6576 9.58301 20 9.58301C18.3424 9.58301 16.7527 10.2415 15.5806 11.4136C14.4085 12.5857 13.75 14.1754 13.75 15.833" stroke="#904272" stroke-width="2"/>
</svg>
